<svg width="191" height="40" viewBox="0 0 191 40" fill="none" xmlns="http://www.w3.org/2000/svg">
<path d="M58.5533 5.82C58.5533 2.52 56.4133 0 52.8133 0H0V19.2467L52.9333 19.26C56.14 19.26 58.5533 16.8533 58.5533 13.5667V5.82Z" fill="#E0E0E0"/>
<path d="M58.5533 26.5533C58.5533 23.2533 56.4133 20.7333 52.8133 20.7333H0V39.98L52.9333 39.9933C56.14 39.9933 58.5533 37.5867 58.5533 34.3V26.5533Z" fill="#E0E0E0"/>
<path d="M59.9668 34.18C59.9668 37.48 62.1068 40 65.7068 40H118.52V20.7467L65.5868 20.7333C62.3801 20.7333 59.9668 23.14 59.9668 26.4267V34.1733V34.18Z" fill="#E0E0E0"/>
<path d="M59.9668 13.44C59.9668 16.74 62.1068 19.26 65.7068 19.26H118.52V0.0133333L65.5868 0C62.3801 0 59.9668 2.40667 59.9668 5.69333V13.44Z" fill="#E0E0E0"/>
<path d="M134.493 27.36C134.74 27.36 134.933 27.3467 135.067 27.32C135.2 27.2933 135.313 27.22 135.4 27.1067C135.487 26.9933 135.533 26.8133 135.533 26.56C135.533 26.3067 135.487 26.1267 135.4 26.02C135.313 25.9133 135.2 25.84 135.067 25.8133C134.933 25.7867 134.74 25.7733 134.493 25.7733H130.467V27.36H134.493ZM130.467 22.6133V24.18H134.1C134.38 24.18 134.587 24.1667 134.733 24.1467C134.88 24.1267 134.993 24.0533 135.08 23.94C135.167 23.8267 135.213 23.6467 135.213 23.4067C135.213 23.1667 135.167 22.9733 135.08 22.86C134.993 22.7467 134.88 22.68 134.733 22.6533C134.593 22.6267 134.38 22.62 134.1 22.62H130.467V22.6133ZM137.673 25.56C137.967 25.8933 138.107 26.32 138.107 26.8467C138.107 27.5733 137.873 28.1467 137.407 28.56C136.94 28.9733 136.213 29.18 135.233 29.18H127.993V20.7867H134.9C136.773 20.7867 137.713 21.48 137.713 22.8667C137.713 23.3133 137.607 23.7 137.393 24.02C137.18 24.34 136.88 24.6067 136.487 24.8067C136.987 24.9733 137.38 25.22 137.673 25.5533" fill="#E0E0E0"/>
<path d="M147.814 20.7867V22.6933H141.46V24.0333H147.574V25.9333H141.46V27.2733H147.814V29.18H138.987V20.7867H147.814Z" fill="#E0E0E0"/>
<path d="M159.5 22.4933L157.82 25.7733H161.18L159.5 22.4933ZM165.58 29.18H162.933L162.12 27.5933H156.873L156.06 29.18H153.4L157.786 20.7867H161.2L165.573 29.18H165.58Z" fill="#E0E0E0"/>
<path d="M133.986 35.6933C134.293 35.6933 134.546 35.6733 134.746 35.64C134.94 35.6067 135.106 35.5133 135.246 35.36C135.386 35.2067 135.453 34.9667 135.453 34.64C135.453 34.3133 135.38 34.08 135.246 33.9267C135.106 33.7733 134.94 33.68 134.746 33.6467C134.553 33.6133 134.3 33.5933 133.986 33.5933H130.446V35.7H133.986V35.6933ZM137.12 32.3467C137.726 32.9 138.026 33.66 138.026 34.6333C138.026 35.6067 137.726 36.38 137.12 36.9333C136.513 37.4867 135.7 37.76 134.666 37.76H130.446V39.9133H127.98V31.52H134.666C135.7 31.52 136.52 31.7933 137.12 32.3467Z" fill="#E0E0E0"/>
<path d="M141.54 31.52V37.84H147.44V39.9067H139.066V31.52H141.54Z" fill="#E0E0E0"/>
<path d="M154.446 33.22L152.766 36.5H156.126L154.446 33.22ZM160.526 39.9067H157.88L157.066 38.32H151.82L151.006 39.9067H148.346L152.733 31.5133H156.146L160.52 39.9067H160.526Z" fill="#E0E0E0"/>
<path d="M164.18 35.0933L167.087 31.52H170.187L165.433 37.1267V39.9067H162.94V37.1267L158.167 31.52H161.273L164.18 35.0933Z" fill="#E0E0E0"/>
<path d="M179.707 31.52V33.42H173.347V34.76H179.467V36.6667H173.347V38.0067H179.707V39.9067H170.88V31.52H179.707Z" fill="#E0E0E0"/>
<path d="M183.34 33.5V35.5333H186.8C187.133 35.5333 187.393 35.52 187.586 35.4867C187.78 35.4533 187.94 35.3667 188.066 35.2133C188.2 35.0667 188.266 34.8333 188.266 34.52C188.266 34.2067 188.2 33.9667 188.066 33.82C187.933 33.6733 187.773 33.5867 187.586 33.5533C187.393 33.52 187.133 33.5 186.8 33.5H183.34ZM190.42 36.9467C190.673 37.22 190.8 37.5867 190.8 38.06V39.9067H188.346V38.52C188.346 38.2467 188.32 38.04 188.266 37.9067C188.213 37.7667 188.113 37.6733 187.966 37.6133C187.82 37.5533 187.606 37.5267 187.32 37.5267H183.34V39.9133H180.873V31.52H187.406C188.526 31.52 189.38 31.74 189.973 32.1867C190.56 32.6267 190.853 33.2867 190.853 34.1667C190.853 35.34 190.346 36.1133 189.34 36.48C189.806 36.5267 190.173 36.6867 190.426 36.9533" fill="#E0E0E0"/>
</svg>
